<svg xmlns="http://www.w3.org/2000/svg" viewBox="0 0 192 64" fill="none">
  <g transform="translate(8,4) scale(0.85)">
    <path d="M32 8 C18 8 10 22 10 36 C10 50 18 64 32 72 C46 64 54 50 54 36 C54 22 46 8 32 8Z" stroke="#A54B2B" stroke-width="2.5" stroke-linecap="round"/>
    <circle cx="32" cy="22" r="2" fill="#A54B2B"/>
    <circle cx="32" cy="52" r="2" fill="#A54B2B"/>
  </g>
  <g transform="translate(72,4) scale(0.85)">
    <path d="M24 6 C34 6 40 14 40 24 C40 34 34 42 24 42 C14 42 8 34 8 24 C8 14 14 6 24 6" stroke="#A54B2B" stroke-width="2.5" stroke-linecap="round"/>
    <circle cx="24" cy="14" r="2.2" fill="#A54B2B"/>
    <path d="M18 22 Q24 28 30 22" stroke="#A54B2B" stroke-width="2" stroke-linecap="round"/>
  </g>
  <g transform="translate(136,0) scale(0.85)">
    <circle cx="24" cy="12" r="2.2" fill="#A54B2B"/>
    <path d="M30 24 C24 18 18 22 16 30 C14 38 18 46 24 50 C30 54 36 50 38 42" stroke="#A54B2B" stroke-width="2.5" stroke-linecap="round"/>
    <circle cx="24" cy="68" r="2.2" fill="#A54B2B"/>
  </g>
</svg>
