<?xml version="1.0" encoding="UTF-8"?>
<svg data-bbox="20 42.001 160 115.999" viewBox="0 0 200 200" height="200" width="200" xmlns="http://www.w3.org/2000/svg" data-type="color">
    <g>
        <path d="M166.994 158c-7.173 0-13.008-5.861-13.008-13.062s5.835-13.062 13.008-13.062c7.171 0 13.006 5.861 13.006 13.062S174.165 158 166.994 158zm0-20.105c-3.867 0-7.013 3.16-7.013 7.043s3.147 7.043 7.013 7.043c3.867 0 7.012-3.16 7.012-7.043-.001-3.883-3.146-7.043-7.012-7.043z" fill="#1C31F4" data-color="1"/>
        <path d="M98.1 115.428c-.423 0-.846-.091-1.241-.27L21.756 80.862A3.01 3.01 0 0 1 20 78.102a3.01 3.01 0 0 1 1.793-2.736l75.102-33.114a3.013 3.013 0 0 1 2.409 0l75.104 33.114a3.014 3.014 0 0 1 .037 5.496l-75.104 34.295a3.008 3.008 0 0 1-1.241.271zM30.343 78.169 98.1 109.111l67.757-30.942L98.1 48.294 30.343 78.169z" fill="#1C31F4" data-color="1"/>
        <path d="M98.1 158c-.85 0-1.66-.362-2.227-.996-24.955-27.841-48.147-24.616-49.116-24.466a3.02 3.02 0 0 1-2.415-.688 3.02 3.02 0 0 1-1.052-2.284V88.757c0-1.664 1.342-3.01 2.997-3.01s2.997 1.346 2.997 3.01v37.59c7.799-.085 27.801 2.122 48.816 24.217 21.012-22.092 40.983-24.417 48.816-24.217v-37.59c0-1.664 1.342-3.01 2.997-3.01s2.997 1.346 2.997 3.01v40.809c0 .882-.386 1.722-1.055 2.293a2.977 2.977 0 0 1-2.424.679c-.964-.162-24.151-3.377-49.104 24.466A2.99 2.99 0 0 1 98.1 158z" fill="#1C31F4" data-color="1"/>
        <path d="M166.994 137.895a3.003 3.003 0 0 1-2.997-3.01V80.959c0-1.664 1.342-3.01 2.997-3.01s2.997 1.346 2.997 3.01v53.927a3.002 3.002 0 0 1-2.997 3.009z" fill="#1C31F4" data-color="1"/>
    </g>
</svg>
