<?xml version="1.0" encoding="UTF-8"?>
<svg data-bbox="21.5 19.869 157.7 159.531" viewBox="0 0 201 200" height="200" width="201" xmlns="http://www.w3.org/2000/svg" data-type="shape">
    <g>
        <path d="M151.4 144.5v-.2z"/>
        <path d="M162.8 160.5v-.2z"/>
        <path d="M66.3 49.5s.1 0 .1-.1c0 0-.1 0-.2-.1v.2Z"/>
        <path d="M144.4 148.9s-.4-.1-.6.1h.6Z"/>
        <path d="M150.9 144.8s-.1 0-.2.1h.2Z"/>
        <path d="M147.4 146h.1Z"/>
        <path d="M69.6 51.5c.3-.4.3-.8.2-1.4-.3.5-.8.7-1 1.2 0 .1.1.3.1.3.3-.3.5-.3.7 0Z"/>
        <path d="m124.5 111.1-.2.2c0 .2-.1.4.2.3v-.3s0-.1-.1-.1Z"/>
        <path d="M66.7 50.8c0-.2.2-.4.2-.4-.2-.2-.3 0-.5.1z"/>
        <path d="M57.1 149c-.2-.3-.6-.2-.6-.1h.6Z"/>
        <path d="M53.5 146h.1Z"/>
        <path d="M49.7 144.5v-.2z"/>
        <path d="m134.5 49.4.1.1v-.2s-.1 0-.2.1Z"/>
        <path d="M50.1 144.8h.2z"/>
        <path d="M38.2 160.5v-.2z"/>
        <path d="M179.2 29.7c-.5 0-.8-.3-1.1-.7h.7c0-.9-.4-1.8-1-2.6-.1-.2-.2-.4-.3-.7 0-.5-.5-.7-.8-1-.7.1-.7-.3-.8-.8-.8-.7-1.4-1.8-2.6-2-.4-.5-.9-.6-1.5-.8-.5-.2-1-.5-1.5-.7s-.9-.1-1.4-.2v.7c-.2-.1-.4-.2-.6-.4-.3-.2-.5-.5-.8-.5h-.5c-.7 0-1.4-.4-1.9.2-.3.4-1.2 0-1.4.7 0 .3-.4.3-.7.3-.7.1-1.1.5-1.1 1.3s-.3.8-.8.8c-.3 0-.7 0-.7.3 0 .2.2.4.3.6v.3c-.1 0-.3 0-.4-.2l-.6-.6c-.7 0-.9.6-1.3 1-.5.4-.9.9-1.3 1.3s-.7 1-1.2 1.1c-.6.2.2 1.5-.9 1l-2.4 2.4c-.2.2-.3.4-.3.8 0 .5-.4.5-.6.8-.7-.2-.9.2-1.3.5-.7.5-1 1.6-2.2 1.5-.2 0-.4.4-.6.6l-5.5 5.5c-.3.3-.8.6-1 1-.3.4-1 0-1.3.5-.8 1-1.9 1.9-2.8 2.8-.3.3-.5.5-.3 1 0 .1-.1.3-.2.3-1-.1-1.3.7-1.9 1.2l-1.6 1.6c.5.8 1 .8 1.5.4v-.3s.1 0 .2.3c0-.1.1 0 .1.1 0 .2.2.3.3.4.4.4.4.3.5-.1 0-.1 0-.2.1-.3.1 0 .3.2.4.3s.2.3.2.4c-.3.3-.3.6-.2 1-.1 0-.3 0-.4-.1-.3-.2-.5-.5-.8-.2 0 .2.2.4.2.4-.2.2-.3 0-.5-.1-.4.3-.5.9-1.1.7-.4 0-.3.2-.2.4.2.3.4.5.7.7v.2h-.4l-1.3-1.3c-.2.2-.4.2-.7 0-.1 0-.2.2-.4.1-.3-.1-.5-.3-.8-.4v.7c-.6-.2-.8.2-1.1.4-.5.4-.7 1.1-1.5.9-.2 0-.3.2-.5.3-.2.2-.4.6-.7.7-.5.2 0 1-.5 1-.4 0-.7.2-.9.4s-.5.4-.4.9c0 .2-.1.4-.3.5-1 1-2 2-2.9 3h-.7c0 1.2-1 1.4-1.6 2.1-.7-.2-.9.2-.8.8 0 .2-.3.4-.5.6-.3.3-.8.6-.6 1.3 0 0-.2.3-.3.3-.9-.4-1 .8-1.8.5-.2 0-.4.2-.5.3-.7.7-1.2 1.3-1.9 1.9-.5.5-.3 1.4-1 1.8-.6.4-1.1 1.1-1.6 1.6l-9.4 9.4c-.1.1-.2.3-.4.4-.1-.1-.2-.3-.4-.4l-9.4-9.4c-.5-.5-1-1.2-1.6-1.6-.7-.4-.4-1.3-1-1.8-.7-.6-1.3-1.3-1.9-1.9-.1-.1-.3-.3-.5-.3-.8.2-.9-.9-1.8-.5 0 0-.3-.2-.3-.3.2-.7-.3-.9-.6-1.3-.2-.2-.5-.4-.5-.6 0-.7-.1-1-.8-.8-.6-.7-1.6-.9-1.6-2.1h-.7l-2.9-3c-.1-.1-.3-.3-.3-.5.1-.5-.2-.7-.4-.9s-.5-.4-.9-.4 0-.8-.5-1c-.3-.1-.5-.5-.7-.7s-.3-.4-.5-.3c-.9.2-1.1-.6-1.5-.9-.3-.2-.6-.7-1.1-.4v-.7c-.3.1-.5.3-.8.4-.1 0-.2 0-.4-.1-.3.3-.5.3-.7 0l-1.3 1.3H67v-.2l.7-.7c.1-.1.3-.5-.2-.4-.7.2-.8-.5-1.1-.7-.2.2-.3.3-.5.1 0 0 .1-.3.2-.4-.3-.3-.5 0-.8.2 0 0-.3 0-.4.1 0-.4 0-.7-.2-1 0 0 0-.3.2-.4.1-.1.3-.2.4-.3 0 0 .1.2.1.3 0 .5 0 .5.5.1.1-.1.2-.2.3-.4 0-.1 0-.2.1-.1 0-.3.2-.3.2-.3v.3c.5.4 1 .4 1.5-.4L66.4 47c-.5-.5-.9-1.3-1.9-1.2 0 0-.2-.2-.2-.3.1-.5 0-.7-.3-1-.9-.9-2-1.8-2.8-2.8-.4-.5-1 0-1.3-.5-.3-.4-.7-.7-1-1l-5.5-5.5c-.2-.2-.4-.6-.6-.6-1.2 0-1.5-1-2.2-1.5-.4-.3-.6-.8-1.3-.5-.2-.3-.7-.3-.6-.8 0-.4 0-.6-.3-.8L46 28.1c-1.1.5-.3-.8-.9-1-.5-.1-.8-.7-1.2-1.1l-1.3-1.3c-.4-.3-.6-.9-1.3-1l-.6.6c-.2.2-.3.2-.4.2v-.3c0-.2.4-.5.3-.6 0-.3-.3-.3-.7-.3-.5 0-.8-.3-.8-.8 0-.8-.5-1.2-1.1-1.3-.3 0-.6 0-.7-.3-.2-.6-1.1-.3-1.4-.7-.5-.6-1.3-.2-1.9-.2h-.5c-.4 0-.6.3-.8.5s-.4.2-.6.4v-.7c-.5 0-1 0-1.4.2-.5.2-1 .5-1.5.7s-1.1.3-1.5.8c-1.2.2-1.7 1.3-2.6 2 0 .5-.2.9-.8.8-.2.3-.7.5-.8 1 0 .2-.1.5-.3.7-.6.8-1 1.7-1 2.6h.7c-.2.4-.6.7-1.1.7-.1.9-.2 1.9-.3 2.8.4.2-.2 1.3.8 1.1.2 0 .3.2.4.4 0 .4.2.8.1 1.2 0 .3-.7.5-.7 1 .6.3.8 1.3 1.9 1.1-.2.3-.3.6-.5.9.3.9 1.6 1.1 1.5 2.3h.2c.6-.1.2.4.3.6.4 0 .9 0 1.7-.1-.2.5-.4.9-.6 1.3.7 0 1 .3 1 .8.6.2 1.1-.3 1.7-.4 0 .4-.3.6-.5.8-.5.5-.4.8.3.8.3 0 .6 0 .6.4 0 .3 0 .6.2.8l1.8 1.8c.1.1.4 0 .8 0-.1.4-.2.9-.3 1.2l2.2 2.2c1.3-.2 1.5 1.1 2.3 1.6 0 1.1.9 1.5 1.4 2.2.2.2.7.5.7.8 0 .5 0 .6.5.5.2 0 .3.3.5.2.6 0 .8 0 .8.7 0 .2.1.4.3.5.5.5 1.1 1.1 1.7 1.5v.4c.1.1.4.2.6.1.3 0 .7-.8.6 0 0 .4.2.8.3 1.2.1.5.7.7 1 1.1.2.5.3 1 .7 1.5 1.1.9 2 2 3 3 .4.4 1 .6.8 1.4h.3c.6 0 1.1.5 1.1 1 0 .4.2.7.4.9l2.1 2.1c.2.2.5.1.8.2v.6h.5c.7.2.8 1.2 1.8.9 0 0 .2.2.2.3v1c0 .4.1.6.5.5.5-.1.7.2.9.4.3.2.7.2 1 .3.2.1.2.4 0 .6-.3.3-.3.5 0 .8.2.2.3.5.7.4.3 0 .7 0 .6.4 0 .4 0 .7.3 1L62 80c.4.3.6 1 1.4.7v.2c0 .7.3 1 1 1 .5 0 0 .6.3.9.6.7 1.7 1.1 1.6 2.3 0 .2.4.5.6.5.4 0 .7 0 .9.4l1.2 1.2 1 1c.5.3.4 1 .7 1.4.6.8 1.4 1.4 2 2.1.3.3.6.5 1.1.4 0 0 .2.3.3.5 0 .2-.2.5.3.4.4-.1.5.1.7.3l2.4 2.4c.2.2.6.2.9.3-.2.7.3.9.7 1.2s.6 1 1.4.7c-.2.8.3 1 .7 1.4l.5.5-5.6 5.6c-.5.5-1.4.8-1.2 1.9h-.2c-.2 0-.4-.1-.5 0l-.6.6c0 .5.4.7.7 1q.3.3.6 0s.2 0 .4-.1v.4c0 .2-.3.4-.2.5.1.3.4.5.8.5s.2 0 .3.1c0 .1 0 .3.2.4.1-.1.2-.3.1-.4.6-.3 0-.9 0-1.4 1 .3 1.1.9 1.1 1.7-.6.6 0 1.4.2 2.1 0 .2 0 .5.1.7-.4-.2-.7-.3-1.1-.5-.3 0-.6 0-.9-.2-.2 0-.3-.4-.4-.6h.3s.2 0 .3-.2v-.2c-.3-.4-.8-.7-.8-1.2 0-.3-.3-.5-.7-.5-.3 0-.6 0-.9-.1-.2 0-.5-.5-.4-.8 0-.2.2-.3.3-.6h-.5c-3.5 3.5-7 7.1-10.6 10.6-.4.4 0 1.2-.7 1.5-.4.3-.7.7-1 1l-1.2 1.2c-.3.3-.8.6-1 1-.4.6-1.2.2-1.6.8-.3.5-.9 1-1.3 1.3-.5.4-.2 1.1-.7 1.5s-.9.9-1.3 1.3l-6.2 6.2v.6h-.6c0 .4 0 .7-.3 1-1.1 1.2-2.3 2.3-3.4 3.4-.3.3-.9.6-.6 1.3h-.7c0 .4 0 .7-.2 1-.2.4-1-.1-1 .5s-.4.7-.6 1-.6.6-.9.9c-.4.3-.2.6.2 1v.2H39c-.7-.3-1.2-.2-1.2.4 0 .5-.2.7-.7.8-.7 0-1.3.7-1.4 1.4 0 .3-.1.5-.3.7l-1.5 1.5c-.4.4 0 1.2-.7 1.5-.4.2-.7.7-1.1 1l-1.1 1.2c.2.6.5.2.8.4.1.2.3.4.3.6 0 .3-.4.4-.7.2-.1 0-.3-.2-.4-.3-.6.1-.8.7-1.3 1-.2.1-.5.3-.4.4.2 1.2-.8 1.5-1.3 2-.4.4-.2 1.1-.7 1.5-.5.3-.8.7-1.1 1.2-.1.2.2.7-.2.8-.6.2-.1 1-.5 1.3-.3.3-.5.6-.9.9-.5.4 0 1.4-.8 1.6.4.9-.6 1-.5 1.8 0 .6-.2 1.2-.4 1.8-.4 1.6-.1 3.2.7 4.9.3.7.7 1.3 1 1.6s.6.7.9.9c.5.4.8 1.1 1.5 1.3 1.1.3 2 1 3.1 1 .5 0 .9.1 1.4.2.4 0 .7-.4 1.2-.2s.8-.2 1.2-.2h.4c.3-.4.8-.4 1.3-.6.6-.2.8-1 1.6-.8.5-.4 1-.9 1.5-1.4 1 .2 1.2-.7 1.7-1.1.4-.4 1.3-.1 1.6-.8.2-.5.8-.8 1.2-1.2 1.2.2 1.4-.8 2-1.3.3-.3.7-.3 1.1-.4.3-.1.6-.5.5-1.1 0-.5.4-.5 1-.3-.2-.5-.3-1-.4-1.3l.7-.7c.5.2.9.4 1.3.5.5.1.6 0 .7-.6 0-.3 0-.6.4-.6s.7 0 1-.3l1.5-1.5c.5-.4.7-1.3 1.7-1.1 0 0 .1 0 .2-.1.5-.5.8-.9 1.3-1.3s.7-1.1 1.6-.8c0-.3-.2-.6.1-.8.5-.4.8-1.1 1.7-1 .2 0 .4-.4.6-.6 1.4-1.4 2.8-2.9 4.3-4.3.4-.4.6-1.2 1.5-1 .1-.3.1-.8.4-1.1l4.8-4.8c.3-.3.6-.6 1.1-.4.1 0 .3-.2.3-.3-.2-.9.5-1.1.8-1.6v-.2c-.1-.5.2-.4.5-.4s.4-.2.5-.3c.8-.8 1.6-1.8 2.5-2.5.8-.7 1.2-1.9 2.6-1.9l1.5-1.5c-.1-.3-.2-.8-.3-1.2.8-.2 1.5-.2 1.9-.5.5-.3 1.2-.6 1-1.5 0 0 .2-.1.3-.1.5 0 .9-.3.9-.7s.1-.7.4-.9l1.8-1.8c.4-.3.6-1 1.4-.7.3-.4.9-.6.9-1.3 0-.8.7-1.1 1.6-1.4.3-.1.8-.4.7-.6 0-.6.2-.8.5-1.1l1.5-1.5c.3-.3.5-.8 1.3-.7.1 0 .3-.2.5-.3l2.4-2.4c.8-.8.2-.4.2-.6 0-.6.5 0 .5 0 .7-.7 1.3-1.4 1.9-2 .6.6 1.3 1.3 1.9 2 0 .1.6-.5.5 0 0 .2 0 .4.2.6l2.4 2.4c.2.2.3.4.5.3.7-.2.9.3 1.3.7l1.5 1.5c.3.3.5.5.5 1.1 0 .2.4.5.7.6.9.3 1.5.6 1.6 1.4 0 .7.6.9.9 1.3.8-.3 1 .4 1.4.7l1.8 1.8c.6.6.3.5.4.9 0 .4.3.7.9.7.1 0 .3 0 .3.1-.2.9.5 1.2 1 1.5.4.3 1.1.3 1.9.5 0 .3-.2.8-.3 1.2l1.5 1.5c1.4 0 1.8 1.2 2.6 1.9.9.8 1.7 1.7 2.5 2.5.1.1.3.3.5.3.3 0 .6 0 .5.4v.2c.3.5 1.1.7.8 1.6 0 0 .2.3.3.3.6-.2.8.1 1.1.4 1.6 1.6 3.1 3.2 4.8 4.8.3.3.3.7.4 1.1.9-.2 1.1.5 1.5 1 1.5 1.4 2.9 2.9 4.3 4.3.2.2.4.6.6.6.9 0 1.2.6 1.7 1 .3.2 0 .6.1.8.9-.3 1.1.5 1.6.8.5.4.9.9 1.3 1.3 0 0 .1.1.2.1 1-.2 1.2.6 1.7 1.1l1.5 1.5c.3.3.5.4 1 .3.3 0 .4.3.4.6 0 .6.1.7.7.6.4 0 .9-.3 1.3-.5l.7.7c0 .3-.2.8-.4 1.3.6-.2 1.1-.2 1 .3 0 .6.2.9.5 1.1.4.1.8.2 1.1.4.6.5.8 1.6 2 1.3.4.4.9.7 1.2 1.2.3.7 1.2.4 1.6.8s.7 1.3 1.7 1.1c.5.5 1 .9 1.5 1.4.8-.2 1.1.6 1.6.8.4.2 1 .2 1.3.6h.4c.4 0 .7.4 1.2.2s.8.2 1.2.2c.5 0 1-.1 1.4-.2 1.1 0 2.1-.7 3.1-1 .7-.2 1-.9 1.5-1.3l.9-.9c.3-.3.7-.9 1-1.6.8-1.7 1.1-3.3.7-4.9-.2-.6-.4-1.2-.4-1.8 0-.8-1-.9-.5-1.8-.8-.2-.3-1.2-.8-1.6l-.9-.9c-.4-.3 0-1.1-.5-1.3-.3-.1 0-.6-.2-.8-.3-.5-.7-.9-1.1-1.2-.5-.3-.2-1.1-.7-1.5-.5-.5-1.6-.8-1.3-2 0-.2-.3-.3-.4-.4-.5-.3-.6-.9-1.3-1-.2.2-.3.3-.4.3-.3.2-.7 0-.7-.2s.2-.4.3-.6c.2-.2.6.2.8-.4l-1.1-1.2c-.3-.3-.6-.8-1.1-1-.6-.3-.3-1.1-.7-1.5l-1.5-1.5c-.2-.2-.3-.4-.3-.7-.1-.7-.7-1.3-1.4-1.4-.6 0-.7-.2-.7-.8 0-.7-.5-.8-1.2-.4h-.4v-.2c.4-.3.5-.6.2-1l-.9-.9c-.3-.3-.7-.4-.6-1 0-.6-.7 0-1-.5-.2-.3-.3-.6-.2-1h-.7c.3-.7-.3-.9-.6-1.3-1.1-1.2-2.3-2.3-3.4-3.4-.3-.3-.4-.5-.3-1h-.6v-.6l-6.2-6.2c-.5-.5-.8-1-1.3-1.3-.5-.4-.2-1.1-.7-1.5s-1-.8-1.3-1.3c-.4-.6-1.3-.2-1.6-.8-.2-.4-.7-.7-1-1l-1.2-1.2c-.3-.3-.7-.8-1-1-.6-.3-.2-1.1-.7-1.5-3.6-3.5-7-7.1-10.6-10.6h-.5l.3.6c0 .3-.2.7-.4.8-.3 0-.7 0-.9.1-.4 0-.7.2-.7.5 0 .6-.4.9-.8 1.2v.2s.2.1.3.2h.3c-.2.2-.3.5-.4.6-.3.1-.6 0-.9.2-.4.1-.7.3-1.1.5 0-.3 0-.5.1-.7.3-.7.8-1.5.2-2.1 0-.7.2-1.4 1.1-1.7-.1.5-.7 1.1-.1 1.4 0 .2 0 .3.1.4.2-.2.2-.3.2-.4 0 0 .2-.1.3-.1.3 0 .7-.1.8-.5 0-.2-.2-.4-.2-.5v-.4c.1 0 .3 0 .4.1q.3.3.6 0c.3-.3.7-.5.7-1l-.6-.6h-.7c.2-1.1-.7-1.3-1.2-1.9-1.9-1.9-3.7-3.8-5.6-5.6l.5-.5c.4-.4.9-.6.7-1.4.8.3 1-.3 1.4-.7.3-.3.9-.5.7-1.2.3-.1.7-.1.9-.3l2.4-2.4c.2-.2.4-.4.7-.3.4.1.2-.2.3-.4 0-.2.2-.5.3-.5.6.1.8-.1 1.1-.4.7-.7 1.5-1.3 2-2.1.3-.4.2-1.1.7-1.4.4-.3.7-.7 1-1l1.2-1.2c.2-.3.5-.4.9-.4.2 0 .6-.3.6-.5 0-1.2 1-1.6 1.6-2.3.2-.3-.2-.8.3-.9.7 0 1.1-.3 1-1v-.2c.8.3 1-.4 1.4-.7l1.2-1.2c.3-.3.4-.5.3-1 0-.3.3-.5.6-.4.4 0 .5-.2.7-.4.3-.2.2-.5 0-.8-.2-.2-.3-.5 0-.6s.7-.1 1-.3.4-.5.9-.4c.3 0 .5-.2.5-.5v-1c0-.3.1-.3.2-.3 1 .3 1.1-.7 1.8-.9h.5v-.6c.3 0 .7 0 .8-.2l2.1-2.1c.2-.2.3-.5.4-.9 0-.6.5-1 1.1-1h.3c-.2-.8.5-1 .8-1.4q1.35-1.5 3-3c.5-.4.5-1 .7-1.5.2-.4.8-.6 1-1.1 0-.4.3-.8.3-1.2 0-.9.4-.2.6 0 .2 0 .4 0 .6-.1.1 0 .1-.2 0-.4.6-.5 1.2-1 1.7-1.5.1-.1.3-.3.3-.5 0-.6.2-.8.8-.7.2 0 .4-.3.5-.2.5 0 .5 0 .5-.5s.4-.5.7-.8c.6-.7 1.5-1.1 1.4-2.2.8-.5 1-1.8 2.3-1.6l2.2-2.2c-.1-.3-.2-.8-.3-1.2h.8l1.8-1.8c.2-.2.2-.5.2-.8s.3-.3.6-.4c.7 0 .8-.3.3-.8-.2-.3-.5-.5-.5-.8.6.1 1.1.6 1.7.4 0-.6.3-.8 1-.8-.2-.4-.4-.9-.6-1.3.8 0 1.3.1 1.7.1 0-.2-.3-.7.3-.6h.2c0-1.2 1.2-1.4 1.5-2.3-.2-.3-.3-.6-.5-.9 1.1.3 1.3-.8 1.9-1.1 0-.5-.6-.7-.7-1 0-.4 0-.8.1-1.2 0-.2.2-.4.4-.4 1 .2.4-.8.8-1.1-.1-1-.2-1.9-.3-2.8ZM26.2 27c.1 0 .2 0 .3-.1v.2s-.2.1-.3.2v-.2Zm-.7 8.3h-.2c0-.1 0-.2.1-.3h.2s0 .2-.2.3Zm1.2-.2-.3.6c-.1.2-.3.1-.4.2 0-.1 0-.3.1-.4l.6-.3Zm1.9-11.9s-.2.2-.3.1c-.4-.2-.3-.6-.2-.9 0-.3.3-.5.8-.8 0 .6-.2 1.1-.3 1.6m1.3 20.2h-.2c0-.1 0-.2.1-.3h.2s0 .2-.2.3Zm.1-20.8c-.2-.1-.4-.1-.5-.3-.2-.2 0-.6.3-.7h.3c0 .3 0 .6-.1 1m1 20.9s-.2.1-.3.2v-.2c.1 0 .2 0 .3-.1v.2Zm3.4-22.1h-.3zm0 .3h-.3c.2 0 .3-.2.4-.3 0 0-.1.2-.2.2Zm.3-.4h-.1c.3-.2.4-.3.5-.4h.4c0 .1 0 .3-.2.4s-.2.2-.4.2h-.2c-.2 0-.2-.2 0-.3Zm.3 3.9s-.2.1-.3.2v-.2c.1 0 .2 0 .3-.1v.2Zm.8 1.4c0 .2-.3.6-.6.6 0 0-.1 0 0 0 0-.1.1-.3.2-.5h.5Zm.3-2.5s-.2.1-.3.2v-.2c.1 0 .2 0 .3-.1v.2Zm.9 6.3h-.2s0-.2.2-.3h.2c0 .1 0 .2-.1.3Zm2.8-6.3h-.3v-.2h.3zm3.6 27.2v.2h-.3v-.2zm-.6-9.3h.3v.2h-.3zM42 24.8h.3v.2H42zm.1 27.8c-.4 0-.7-.4-1.2-.2.3-.6-.5-.8 0-1.4.1-.1.3-.2.4-.3.5 0 .7.6 1.1.9 0 0 .3.2.3.3s0 .3-.1.4-.3.3-.4.3Zm.9 6.3.2-.3c0 .2 0 .3-.2.3m.3-5h-.2c0-.1 0-.2.1-.3h.2s0 .2-.2.3Zm.7-1.1h.2c0 .1 0 .2-.2.3h-.2c0-.1 0-.2.2-.3m.1 2.6h-.2c0-.1 0-.2.1-.3h.2s0 .2-.2.3Zm.5-15.2h.3v.2h-.3zm.5 16.5-.6-.6s0-.2.1-.3h.2l.3.3.3.3s0 .3-.1.4h-.2Zm.4-4.4h-.2c0-.1 0-.2.1-.3h.2s0 .2-.2.3Zm.4 5.9c.2-.5.4-.9.7-1.6.3.3.5.6.7.8v1.4c-.4-.5-.7-.9-1.4-.7Zm1.3 3.7-.3.2c-.5-.3-.8-.8-.4-1.6.8.1.9.7.7 1.5Zm.5 1.4h-.3v-.2h.3zm0-3.6h-.4s-.2-.2-.2-.3v-.2c0-.1.1-.2.2-.2l.1.1c.2.1.2.2.3.3v.4Zm.9 1.5h-.3V61h.3zm.1-2h-.2c0-.1 0-.2.2-.3h.2c0 .1 0 .2-.2.3m5.1 11.4v-.7c-.7.2-1-.2-1.2-.5 0 0 0-.3.2-.3s.5 0 .7-.2c.3-.3.5-.3.8-.1l.7.7c-.1.6-.5 1-1.1 1.1Zm1.2.9h-.2s0-.2.2-.3h.2c0 .1 0 .2-.1.3Zm2.4-7.6v.3-.4Zm-.1 0v.5s-.1 0-.1-.1v-.4Zm-.2.7.2-.2v.4c-.3.1-.3-.1-.2-.3Zm.8 4.5c-.2.2-.6-.2-.5-.5l.1-.1c.1 0 .2 0 .4.1zm.8-3.7h-.3v-.2h.3zm.7-15.6h-.3v-.2h.3zm1.3 21c0-.1 0-.2.1-.3h.2s0 .2-.2.3h-.2Zm4.3-17c.3-.1.6.2.5.5l-.1.1c-.3.1-.6-.2-.5-.5zm-.4-5.6s.2-.3.3-.3c.2 0 .4 0 .6.2 0 0 .1.3 0 .4-.3.3-.5.7-1 .8-.2-.3 0-.7 0-1Zm-.4-1.9h.2c0 .1 0 .2-.2.3H64c0-.1 0-.2.2-.3m-1.3 11.1c0-.1 0-.2.1-.3h.2s0 .2-.2.3h-.2Zm.5 18.8h-.2s0-.2.2-.3h.2c0 .1 0 .2-.1.3Zm1.3-11.1c-.3-.3-.6-.7-.8-1 0 0 .1-.3.2-.4s.3-.2.4-.2c.4.3.8.7 1.2 1.1v.4c-.3 0-.6 0-1 .1m3.2 0h-.2c0-.1 0-.2.2-.3h.2c0 .1 0 .2-.2.3m.4-12c0-.1 0-.2.2-.3h.2c0 .1 0 .2-.2.3zm.6 6.2h-.3v-.2h.3zm.2-3.3v-.3h.2v.3zm.1 3.9v-.2h.3v.2zm2.6 29.2h-.3c0-.3 0-.6.2-.9 0 0 .3-.2.3-.1.1.1.3.3.3.5s-.3.3-.5.5m1.1-30.2h-.3v-.2h.3zm.8 32h-.3v-.2h.3zm.3-11.3v-.2c.1 0 .2 0 .3-.1v.2s-.2.1-.3.2Zm.4 5.3h-.3v-.2h.3zM77 71.1h.2c0 .1 0 .2-.2.3h-.2c0-.1 0-.2.2-.3m.3 1.7c0 .2-.3.6-.6.6 0 0-.1 0 0 0 0-.1.1-.3.2-.5h.5Zm.5-2.2h-.2c0-.1 0-.2.1-.3h.2s0 .2-.2.3Zm.2 2.3h.3v.2H78zm.5 19.8c-.1 0-.2 0-.3.1v-.2s.2-.1.3-.2v.2Zm1.6-21.9c-.2.2-.4.2-.6.3 0-.2.2-.4.2-.6.2 0 .4-.1.5-.2 0 0 0 .3-.2.4Zm.3 21h-.2c0-.1 0-.2.1-.3h.2s0 .2-.2.3Zm-4.7 16.6v-.2c.1 0 .2 0 .3.1v.2s-.2 0-.3-.2Zm-42.4 46.5c.1.2.2.4.2.5-.3 0-.7-.4-.6-.6h.5Zm-.8 13.4c-.3 0-.6-.3-.6-.6h.1c.3-.2.6.2.6.5zm0-1.6c0-1 .8-.5 1.3-.5 0 1-.8.5-1.3.5m1.8 1.5c0 .1-.2.2-.3.3l-.3.3s-.2 0-.3-.1v-.2l.6-.6s.2 0 .3.1zm5.4-12.6h.5c.1 0 .2 0 .3.2 0 .1 0 .3-.1.3l-.4.1c-.3 0-.5-.3-.5-.7h.2Zm.3 4h-.2l-.2-.3h.2c0 .1 0 .2.1.3Zm-.6.5c.1 0 .2 0 .3.1v.2s-.2 0-.3-.2v-.2Zm-1.1-2.4s.1.2.2.3h-.2s-.1-.2-.2-.3zm-1 .9h.2v.3h-.2zm-.6-10.7c.1 0 .2 0 .3.1v.2s-.2 0-.3-.2v-.2Zm-.8 10.5c.2 0 .4.2.6.2 0 .2.1.4.2.5-.1 0-.3 0-.4-.2-.2-.2-.2-.4-.3-.6Zm.3 2.7q-.3 0-.6-.3c-.2-.2-.2-.5 0-.7 0 0 .2 0 .4.1 0 .2.2.5.3.7 0 0-.1.2-.1.1Zm.7 0h-.4c-.4-.2 0-.2-.4-.8.1 0 .3.2.5.4l.4-.4h.4v.2c-.2.2-.4.4-.5.6m1.1 1.1h-.2c-.1 0-.3-.1-.4-.2s-.1-.3-.2-.4h.4c.1 0 .2.2.5.5H38Zm1.9.1c-.3-.2-.6 0-.8-.3-.1.1-.2.3-.4.4 0 0-.2-.1-.5-.3l.5-.5c-.2-.2-.4-.3-.5-.5v-.6c-.1 0-.2-.2-.2-.3-.1-.1-.2-.3-.2-.5.1 0 .3.1.5.7v-.5l.2.2c0 .1.2.3 0 .4l-.1.1c.2 0 .4.2.6.2.4 0 .3.3.2.4 0 .2-.3.3-.4.4l.4.4c.3-.6.8-.5 1.2-.4 0 .6.2 1.1.3 1.7-.7 0-.7-.6-.7-1Zm1.3-2-.2-.3h.2c0 .1 0 .2.1.3h-.2Zm.5 5.4-.2-.3h.2c0 .1 0 .2.1.3h-.2Zm.3-9c-.1.2-.2.4-.4.4s-.4-.2-.6-.4v-.3h.9v.2Zm4-14.9h.3v.2H46zm-.1 27.4s-.1.2-.1.1v-.5.4Zm-3.4-4.4v-.2h.3v.2zm.5-22.9v-.2c.1 0 .2 0 .3.1v.2s-.2 0-.3-.2Zm.5 18.4c-.1 0-.1-.3-.2-.4.1 0 .4.2.4.2.2.2.3.4.5.8-.4-.2-.6-.3-.8-.5Zm.1-14.3h-.2c0-.3 0-.6-.1-.9.3-.5 1.1-.7.8-1.6.3-.2.4-.6.7-.6.2.6.3 1.2.5 1.7-.6.5-1.1 1-1.6 1.4Zm1.7 6.9v.4-.3Zm.1.9v-.9.4c0 .2-.1.2-.1.1l.2.2c0 .2.1.4-.2.3Zm.3 15v.4-.3Zm.1 1v-.4l.2.2c0 .2.1.4-.2.3Zm.4-16.3v-.2c.1 0 .2 0 .3.1v.2s-.2 0-.3-.2Zm.7 16.1h-.2v-.3h.2zm.3-1c-.1 0-.2 0-.3-.1v-.2s.2 0 .3.2v.2Zm.6-.9v-.2h.3v.2zm.9-20.2s-.1-.2-.2-.3h.2s.1.2.2.3zm1.5-2.4s-.2-.1-.2-.2c-.1 0-.4.1-.4.1-.2-.2-.2-.3 0-.6v-.3l.1.3v-.3.4c0 .2 0 .1-.1.1 0 0 .2.2.4.3h.3-.2s.2 0 .3.1h-.3Zm10.2-3.9c.1 0 .2 0 .3.1v.2s-.2 0-.3-.2v-.2Zm-2.6-6.5c.1.2.2.4.2.5-.3 0-.7-.4-.6-.6h.5Zm-.3 10.2v-.7c.7.3.8.5.7.8l-.9.9c-.4.2-.5.8-1.3.5zm.4 3.4h-.2l-.2-.3h.2c0 .1 0 .2.1.3Zm-4.3-5.1.2.3h-.2c0-.1 0-.2-.1-.3h.2Zm.4 1.3c.2.6.5 1.2.7 1.8 0 0 0 .1-.1.2l.1.1c0 .2.1.4-.2.3v-.5c-.2-.2-.3-.4-.5-.5h-.5.1c0 .3.1.5-.2.4v-.5c-.6-.4-.7-1-.7-1.6.3 0 .7.1 1.1.2Zm-2-1.8c.2.1.3.6.3.6-.2.3-.3.8-.9.7.1-.3.2-.6.2-1s0-.4.3-.2Zm-.4-2.1s.1.2.2.3h-.2s-.1-.2-.2-.3zm1 17v-.2h.3v.2zm2.5-7.4c-.4-.1-.7 0-1 .2-.1 0-.6-.3-.6-.3 0-.7-.6-1.2-1-1.6l-.3.3c-.3.2-.5.2-.5-.2 0-.3-.3-.5-.4-.8v-.2h.4c.3.3.6.5.9.8.1 0 .2-.1.4-.1.6 0 .7 0 .7-.8s0-.2.2-.2l1.2 1.2c0 .4-.6.7 0 1.2v.4Zm.3-3.8s.2 0 .3.3c-.2 0-.4 0-.4-.3Zm.6 12.2v-.2c.1 0 .2 0 .3.1v.2s-.2 0-.3-.2Zm.8-.5-.2-.3h.2c0 .1 0 .2.1.3h-.2Zm-.1-3.1v-.2c.1 0 .2 0 .3.1v.2s-.2 0-.3-.2Zm1.2-3.4v-.2h.3v.2zm2.3 1.5-.1-.1c0-.3.2-.6.5-.5l.1.1c0 .3-.2.6-.5.5m.7-5.7-.3.3c.2.2.2.4.1.6s-.2.5-.3.8c-.6.2-1.4-.4-2 0 .3.2.3.5.1.6-.2.2-.4.5-.6.5-.6 0-.6.2-.5.6H57l-.3-.6c.3-.2.2-.5-.2-1.2q-.3-.3-.6-.9c.3 0 .6 0 .8.1.2 0 .4.3.5.5 0 0 0 .2-.1.4.5.3.9.4 1.3.2-.2-.5-.1-.8.2-.8.4 0 .9.2 1.1.2l.8-.8-.3-.3c-.3-.3-.3-.5 0-.7.2-.2.4-.1.6 0 .3.3.4.5.1.7Zm-.2-3.1v-.2h.3v.2zm.9 9.6-.2-.3h.2c0 .1 0 .2.1.3h-.2Zm1.6 2.4c-.2.3-.5.2-.8-.2q-.3-.3 0-.6c.2-.2.5-.2.8.2v.5Zm1.5-10.6h-.2v-.3h.2zm2.1 3.2c-.3 0-.7-.4-.6-.6h.5c.1.2.2.4.2.5Zm3-29.8c-.3 0-.7-.4-.6-.6h.5c.1.2.2.4.2.5Zm.6-.6h-.2v-.3h.2zm.6.8v-.3.4Zm0 .6v-.9.4c0 .2-.1.2-.1.1l.2.2c0 .2.1.4-.2.3Zm.3-3c-.3.7-1.2.5-1.8.8h-.1v-.1c0-.1 0-.2.1-.4.3-.6 1.1-.3 1.6-.6h.1v.3Zm1.8-5.5c-.1-.2-.4-.2-.6-.2s-.3-.1-.2-.3.3-.4.5-.3c.3.1.5.3.8.6.4.3.5.1.8 0h.4v.9c-.6.1-1-.2-1.4-.6Zm2 1.7h-.2c-.3-.1-.4-.3-.3-.8l.5.5v.4Zm2.5 27.6v-.2c.1 0 .2 0 .3.1v.2s-.2 0-.3-.2Zm91.4 26.9h.1c0 .4-.3.8-.6.7l-.1-.1c0-.3.3-.7.6-.6m-1.3-12.7h.5c0 .2-.3.6-.6.6 0 0-.1 0 0 0 0-.1.1-.3.2-.5Zm.8 11.8c-.5 0-1.3.5-1.3-.5.5 0 1.3-.5 1.3.5m-1.7 1.3c.1 0 .3-.2.3-.1l.6.6v.2c-.1 0-.3.2-.3.1-.1 0-.2-.2-.3-.3l-.3-.3zm-1.5-7.8c.3.2.3.5 0 .7-.2.2-.4.2-.6.3 0 0-.1 0-.1-.1 0-.2.2-.5.3-.7.2-.1.3-.2.4-.1Zm-.8-1.5c.2 0 .4-.2.6-.2l-.3.6s-.3.1-.4.2c0-.1 0-.3.2-.5Zm.3 1.7c-.4.6 0 .5-.4.8s-.3 0-.4 0c-.2-.2-.4-.4-.5-.6v-.2c.1 0 .3-.1.4 0 .2.1.3.3.4.4.2-.2.3-.3.5-.4m-.9-12.3c.1 0 .2 0 .3-.1v.2s-.2.1-.3.2v-.2Zm-.2 10.5v.3h-.2v-.3zm-.3 3h.4c0 .1 0 .3-.2.4-.1.1-.2.2-.4.2h-.3l.5-.5Zm-.7-3.9h.2c0 .1 0 .2-.2.3s-.2 0-.2 0c0-.1 0-.2.2-.3m-1.1 2.4v.2s-.2.1-.3.2v-.2c.1 0 .2 0 .3-.1Zm-.6-.5c0-.1 0-.2.1-.3h.2s0 .2-.2.3h-.2Zm-.2-4h.7c0 .3-.2.6-.5.7s-.3 0-.4-.1c0 0-.1-.2-.1-.3.1 0 .2-.1.3-.2Zm-.1 6c.4 0 1-.2 1.2.4l.4-.4c-.1-.1-.3-.2-.4-.4 0-.1-.2-.4.2-.4.2 0 .4-.1.6-.2l-.1-.1v-.4l.2-.2v.5c.2-.6.3-.6.5-.7 0 .2 0 .4-.2.5 0 0-.1.3-.3.3v.6c0 .2-.3.3-.5.5s.5.5.5.5c-.2.1-.4.2-.5.2-.2 0-.3-.3-.4-.4-.2.4-.6.1-.8.3 0 .4 0 .9-.7 1 0-.6.2-1.1.3-1.7Zm-1.3 3.8s0 .2-.2.3h-.2c0-.1 0-.2.1-.3h.2Zm.4-5.1h-.2c0-.1 0-.2.1-.3h.2s0 .2-.2.3Zm-.7-3.9h.9v.3c-.2.2-.4.4-.6.4s-.3-.2-.4-.4v-.2Zm-3.9 13.4c-.3.1-.3-.1-.2-.3l.2-.2v.4Zm2.3-9.5c-.2.2-.4.3-.8.5.2-.4.3-.6.5-.8 0 0 .3-.1.4-.2 0 .1 0 .3-.2.4Zm.7 4.2h.3v.2h-.3zm-.5-22.7c.1 0 .2 0 .3-.1v.2s-.2.1-.3.2v-.2Zm-1.5 1c.3 0 .4.4.7.6-.3.9.5 1.1.8 1.6 0 .3 0 .6-.1.9s-.2 0-.2 0c-.5-.4-1-.9-1.6-1.4.2-.5.3-1.1.5-1.7Zm-.5 10.1v.3-.4Zm-.3.6.2-.2s-.1 0-.1-.1v-.4.9c-.3 0-.2-.1-.2-.3Zm-.1 15.3v.3-.4Zm-.2 0v.5s-.1 0-.1-.1v-.4Zm-.4-27.1s.2 0 .3.1v.2h-.3v-.2Zm-.3 11.7c.1 0 .2 0 .3-.1v.2s-.2.1-.3.2v-.2Zm-.1 15.9v.3h-.2v-.3zm-.5-.9s.2-.1.3-.2v.2c-.1 0-.2 0-.3.1v-.2Zm-.9-1h.3v.2h-.3zm-.6-20.1h.2c0 .1 0 .2-.2.3h-.2c0-.1 0-.2.2-.3m-1.9-2.4h.3c.2-.1.3-.2.4-.3 0 0-.1 0-.1-.1v-.4.3c0-.3.1-.3.1-.3v.8h-.4s-.1.2-.2.2h-.3c.1 0 .2 0 .3-.1h-.2Zm-9.6 8.2c-.3.1-.6-.2-.5-.5h.1c.3-.2.6 0 .5.4zm2.3-1.5h-.3v-.2h.3zm1.1 6.5h-.2c0-.1 0-.2.1-.3h.2s0 .2-.2.3Zm.1-3.1s-.2.1-.3.2v-.2c.1 0 .2 0 .3-.1v.2Zm.6 3.6s-.2.1-.3.2v-.2c.1 0 .2 0 .3-.1v.2Zm3.5-1h-.3v-.2s.2 0 .3.1v.2Zm1-17h.2c0 .1 0 .2-.2.3s-.2 0-.2 0c0-.1 0-.2.2-.3m-.4 2.1c.2-.2.3 0 .3.2s.1.7.2 1c-.6.1-.7-.3-.9-.7 0 0 .2-.5.3-.6Zm-1.6.5h.2c0 .1 0 .2-.1.3h-.2s0-.2.2-.3Zm-1.1 3.4.1-.1s-.1-.1-.1-.2c.2-.6.5-1.2.7-1.8.4 0 .8-.1 1.1-.2 0 .7 0 1.2-.7 1.6v.5c-.3.1-.3-.1-.2-.3l.1-.1c-.2 0-.4-.1-.5 0-.2 0-.3.3-.5.5zv.4c-.3.1-.3-.1-.2-.3Zm-.4 3.3c.7-.5.1-.8 0-1.2l1.2-1.2c.2 0 .2 0 .2.2 0 .7 0 .7.7.8.1 0 .3 0 .4.1l.9-.9h.4v.2c-.2.3-.4.5-.4.8 0 .4-.2.4-.5.2l-.3-.3c-.5.5-1.1.9-1 1.6 0 0-.4.4-.6.3-.3-.1-.6-.3-1-.2zm-.3-3.5c0 .3-.2.3-.4.3.1-.3.3-.3.3-.3Zm-2.5-11.7h.5c0 .2-.3.6-.6.6 0 0-.1 0 0 0 0-.1.1-.3.2-.5Zm.4 9.5v.7l1.5 1.5c-.8.2-.9-.3-1.3-.5l-.9-.9c0-.3 0-.4.7-.8m0 3.7s0 .2-.2.3-.2 0-.2 0c0-.1 0-.2.1-.3h.2Zm-2.7-.5-.3.3.8.8c.3 0 .7-.2 1.1-.2.3 0 .3.3.2.8.4.2.9.2 1.3-.2 0-.1-.2-.3-.1-.4.1-.2.3-.4.5-.5.3-.1.6 0 .8-.1-.2.3-.5.6-.6.9-.4.6-.6 1-.2 1.2s-.2.4-.3.6h-.4c.1-.4 0-.7-.5-.6-.2 0-.5-.3-.6-.5-.2-.2-.1-.4.1-.6-.6-.4-1.5.2-2 0-.1-.3-.2-.6-.3-.8 0-.2-.1-.4.1-.6l-.3-.3c-.2-.2-.2-.5.1-.7q.3-.3.6 0c.2.2.3.4 0 .7Zm-.6-6c.1 0 .2 0 .3-.1v.2s-.2.1-.3.2v-.2Zm-.2 2.6h.3v.2h-.3zm-.7 9.6h.2s0 .2-.2.3h-.2c0-.1 0-.2.1-.3Zm-.8 1.9q.3.3 0 .6c-.2.3-.5.4-.8.2-.1-.1 0-.3 0-.5.3-.4.6-.5.8-.3m-2.1-10.1v.3h-.2v-.3zm-2 2.9h.5c0 .2-.3.6-.6.6 0 0-.1 0 0 0 0-.1.1-.3.2-.5Zm-4.4-28.4c-.3 0-.2-.1-.2-.3l.2-.2s-.1 0-.1-.1v-.4.9Zm.1-.6v-.4.3Zm.5-.8v-.3h.2v.3zm1.2 0c0 .2-.3.6-.6.6 0 0-.1 0 0 0 0-.1.1-.3.2-.5h.5Zm-2.1-1.8h.1c.5.2 1.3 0 1.6.5 0 .1.1.2.1.4s-.1.1-.1.1c-.6-.3-1.5 0-1.8-.8v-.2Zm-3-5.7c.2.2.4.4.8 0 .2-.2.5-.5.8-.6.1 0 .3.2.5.3 0 .2 0 .3-.2.3s-.5 0-.6.2c-.4.4-.8.7-1.4.6-.1-.4 0-.6 0-.9s.3-.1.4 0Zm-.8 1.7c.1-.2.3-.3.5-.5.1.5 0 .7-.3.8h-.2v-.4Zm-2.8 27.9c.1 0 .2 0 .3-.1s0 .2 0 .2-.2.1-.3.2v-.2Zm1.9-32.3c.1 0 .2 0 .3-.1v.2s-.2.1-.3.2v-.2Zm-5.8-18.6h-.2s-.1-.2-.2-.3h.2s.1.2.2.3m-.4-24.4v.2c-.1 0-.2 0-.3-.1v-.2s.2 0 .3.2Zm-.4 30.7s.1.2.2.3h-.2s-.1-.2-.2-.3zm-.2-3.8h-.2s-.1-.2-.2-.3h.2s.1.2.2.3m-.8-26.5c.3 0 .7.3.6.6h-.1c-.3.1-.7-.2-.6-.5zm-.3 1.4v.2c-.1 0-.2 0-.3-.1V67s.2 0 .3.2Zm-13 32.1V99c.1 0 .2 0 .3.1v.2s-.2 0-.3-.2Zm-3.6 7.7v-.2zm-3.9-7.8c.1 0 .2 0 .3-.1v.2s-.2.1-.3.2v-.2Zm-12.7-32s.2-.1.3-.2v.2c-.1 0-.2 0-.3.1V67Zm-.3-1.4.1.1c0 .3-.3.6-.6.6H83c0-.4.3-.7.6-.7M83 91.9h.2c0 .1 0 .2-.2.3h-.2c0-.1 0-.2.2-.3m-.2 4c0 .1 0 .2-.2.3h-.2c0-.1 0-.2.2-.3zm-.6-30.6s.2-.1.3-.2v.2c-.1 0-.2 0-.3.1v-.2Zm-.3 24.1h.2c0 .1 0 .2-.2.3h-.2c0-.1 0-.2.2-.3M80 108.9c.1 0 .2 0 .3.1v.2s-.2 0-.3-.2v-.2Zm-1.3-2.1c.2.3.3.4.4.5v.2h-.4c-.2-.2-.4-.5-.7-.7-.1 0-.2-.2-.1-.2.2 0 .4.1.8.3Zm-.4-.3c.2.1.3.2-.3 0h.2Zm-.5.2c-.2 0-.4 0-.4-.3s.1 0 .5.1c0 0 0 .1-.1.1Zm.5 7.5H78v-.2s.2 0 .3-.1v.2Zm.1-2.4c-.1-.1-.1-.4-.1-.4.2-.2.3 0 .2-.2 0 0 0 .1-.1.1 0 0-.2-.1-.2-.2v-.3l.3.3v-.3.4c0 .2 0 0 0 0 0 .1.1.3.2.5.2.2.4.3.5.5v.4H79l-.7-.7Zm.9 5c0-.1 0-.2-.1-.3h.2l.2.3h-.2Zm.4-1.6c.1 0 .2 0 .3.1v.2s-.2 0-.3-.2v-.2Zm.4 24.6v-.2h.3v.2zm1.3-28.7h-.5c-.1 0-.2-.1-.3-.2 0-.1 0-.3.1-.3l.4-.1c.3.1.5.3.5.7h-.2Zm1.4-7.1h.5c.1.2.2.4.2.5-.3 0-.7-.4-.6-.6Zm.5 16.2s-.1-.2-.2-.3h.2s.1.2.2.3zm.1-17.8-.2-.3h.2c0 .1 0 .2.1.3h-.2Zm.4 1.5v-.2c.1 0 .2 0 .3.1v.2s-.2 0-.3-.2Zm1.7 18.9c-.1 0-.2 0-.3-.1v-.2s.2 0 .3.2v.2Zm.4-2.6c-.1 0-.2 0-.3-.1v-.2s.2 0 .3.2v.2Zm.4 2.4h-.2v-.3h.2zm0-1.7v-.2h.3v.2zM88 131c-.3-.2-.5-.5-.3-.7 0-.1.3-.2.5-.3 0 .4.1.7.1 1s-.3 0-.3 0m1.3-1.9s-.1-.2-.2-.3h.2s.1.2.2.3zm.2-5.5v-.2h.3v.2zm.5 1.4c.6.2 1 .5 1.1 1.1-.6-.2-1-.5-1.1-1.1m1-1.3-.2-.3h.2c0 .1 0 .2.1.3h-.2Zm4.5-9.1v-.2h.3v.2zm.8 6v-.5c.2 0 .3 0 .4-.1h.1c0 .4-.2.8-.5.6m1.8.7c-.2.2-.4.6-.9.5 0-.3.2-.6.2-1s0-.4.3-.3l.2.2c.2.2.3.4.1.6Zm4.7 0c-.2-.2-.1-.4.1-.6l.2-.2c.3 0 .3 0 .3.3s.1.7.2 1c-.5.1-.6-.2-.9-.5Zm2-.7c-.2.2-.6-.2-.5-.5h.5zm.7-6h-.3v-.2h.3zm4.4 8.8h.2s0 .2-.2.3h-.2c0-.1 0-.2.1-.3Zm-.1 2.7c.1-.6.5-1 1.1-1.1-.1.6-.5 1-1.1 1.1m1.7-2.5h-.3v-.2h.3zm.2 5.5h-.2c0-.1 0-.2.2-.3h.2c0 .1 0 .2-.2.3m1.3 1.9h-.3c0-.3 0-.6.1-1 .2 0 .4.1.5.3.2.2 0 .6-.3.7m1.4-10.4h.3v.2h-.3zm.5 2h-.2v-.3h.2zm.6-2.5c-.1 0-.2 0-.3.1v-.2s.2-.1.3-.2v.2Zm.4 2.6c-.1 0-.2 0-.3.1v-.2s.2-.1.3-.2v.2Zm1.3-18.8s-.2.1-.3.2v-.2c.1 0 .2 0 .3-.1v.2Zm.5 16.3h-.2c0-.1 0-.2.2-.3h.2c0 .1 0 .2-.2.3m-.3-17.8c0-.1 0-.2.1-.3h.2s0 .2-.2.3h-.2Zm.8 1.6c0 .2-.3.6-.6.6 0 0-.1 0 0 0 0-.1.1-.3.2-.5h.5Zm4.8 10.3h-.3v-.2h.3zm.6-7.9c0 .3-.2.3-.4.3 0 0-.1 0-.1-.1.4-.1.5-.1.5-.1Zm-.9.1h.2c-.6.2-.5 0-.3 0Zm-.8.8c.1-.1.2-.2.4-.5.3-.1.6-.2.8-.3 0 0 0 .1-.1.2-.3.2-.5.5-.7.7h-.4v-.2Zm-.2 4.9.5-.5c0-.2.2-.4.2-.5v-.4.3c.2-.3.2-.4.3-.3v.3l-.2.2-.1-.1c0 .2 0 0 .2.2s0 .3-.1.4l-.7.7h-.2v-.4Zm-.1 4.3h.2c0 .1 0 .2-.1.3h-.2s0-.2.2-.3Zm-.3-1.1s-.2.1-.3.2v-.2c.1 0 .2 0 .3-.1v.2Zm-.7-6.3c.1 0 .2 0 .3-.1v.2s-.2.1-.3.2v-.2Zm0 30.4h.3v.2h-.3zm-.7-29.1s.3 0 .4.1.1.2.1.3c-.1 0-.2.1-.3.2h-.7c0-.3.2-.6.5-.7Zm.6-18.6-.2-.3h.2c0 .1 0 .2.1.3h-.2Zm.4-21c-.1 0-.2-.4-.2-.4.1 0 .3 0 .5.2 0 .2.2.4.2.6l-.6-.3Zm1.9 22c-.1 0-.2 0-.3-.1v-.2s.2 0 .3.2v.2Zm.2-19.7h-.3v-.2h.3zm.2-2.5-.2-.3h.2c0 .1 0 .2.1.3h-.2Zm.8.5s.1.2.2.3h-.2s-.1-.2-.2-.3zm.2 2.3c-.3 0-.7-.4-.6-.6h.5c.1.2.2.4.2.5Zm2.4 11.5v-.2h.3v.2zm.1-5.4v-.2c.1 0 .2 0 .3.1v.2s-.2 0-.3-.2Zm.9 11.3h-.3v-.2h.3zm.5-31.9v-.2h.3v.2zm1.1 30.2c-.2-.2-.4-.3-.5-.5 0-.2.1-.3.3-.5l.3.1c.1.3.1.6.2.9zm2.6-29.2h-.3v-.2h.3zm.1-3.9h-.2v-.3h.2zm.5 3.2h-.3V59h.3zm.1-6.2s-.1-.2-.2-.3h.2s.1.2.2.3zm.6 12.1s-.1-.2-.2-.3h.2s.1.2.2.3zm3.7-18.8s.1.2.2.3h-.2s-.1-.2-.2-.3zm-1.3 2.1V48c.2-.1.4-.2.6-.2.1 0 .3.3.3.3 0 .3.2.7 0 1-.5 0-.7-.5-1-.8Zm.5 5.4.1.1c0 .3-.2.6-.5.5l-.1-.1c0-.3.2-.6.5-.5m.4 11.3c-.4 0-.7 0-1-.1v-.4c.4-.4.8-.8 1.2-1.1 0 0 .3 0 .4.2.1.1.3.3.2.4-.3.4-.6.7-.8 1m1.2 11.1c0-.1 0-.2-.1-.3h.2l.2.3h-.2Zm.3-18.9-.2-.3h.2c0 .1 0 .2.1.3h-.2Zm2.2 13.5-.2-.3h.2c0 .1 0 .2.1.3h-.2Zm1.8-21.1h-.3v-.2h.3zm.7 15.7h-.3v-.2h.3zm1.2-1.1s0 .1-.1.1v-.5.4Zm-.3-.4v.4-.3Zm-.3 5.3v-.5c.2 0 .3 0 .4-.1l.1.1c0 .3-.2.6-.5.5m.4-4.3v-.4l.2.2c0 .2.1.4-.2.3Zm2.4 6.6c0-.1 0-.2-.1-.3h.2l.2.3h-.2Zm1.1-1.6v.7c-.6-.1-1-.5-1.1-1.1l.7-.7c.2-.2.5-.2.8.1.2.1.4.1.7.2 0 0 .1.2.2.3-.3.4-.6.8-1.2.5Zm5.1-11h.2s.1.2.2.3h-.2s-.1-.2-.2-.3m.2 2.3V61h.3v.2zm.9 2.1v-.2h.3v.2zm.4-3.7h-.4c0-.1-.1-.3 0-.4 0 0 .1-.2.3-.3 0 0 0-.1.1-.1 0 0 .1 0 .2.2v.2c0 .1-.1.2-.2.3Zm.5 2.5-.3-.2c-.2-.7 0-1.3.7-1.5.4.8.1 1.3-.4 1.6Zm-.5-3.2v-1.4c.2-.2.4-.5.7-.8.3.6.5 1.1.7 1.6-.7-.2-1 .2-1.4.7Zm2.4-18.7h.3v.2h-.3zm-.7 11.8h.2c0 .1 0 .2.1.3h-.2l-.2-.3Zm1.1 4.1-.6.6h-.2c0-.1-.1-.3-.1-.3 0-.1.2-.2.3-.3l.3-.3h.2c0 .1.2.3.1.3m.4-.7-.2-.3h.2c0 .1 0 .2.1.3h-.2Zm0-2.3s-.1-.2-.2-.3h.2s.1.2.2.3zm2.1-28.3v.2h-.3v-.2zm-1.1 17.3h.3v.2h-.3zm-.3 9.2h.3v.2h-.3zm-.1 2.2h.2c0 .1 0 .2.1.3h-.2l-.2-.3Zm.3 5.1.2.3c-.2 0-.3 0-.3-.3Zm2.3-6.2c-.5-.2-.8.2-1.2.2 0 0-.3-.2-.4-.3 0-.1-.1-.3-.1-.4s.3-.3.3-.3c.4-.3.6-.8 1.1-.9.2.1.3.2.4.3.4.6-.4.8 0 1.4Zm1.1-28.3v-.2h.3v.2zm2.8 6.3c0-.1 0-.2-.1-.3h.2l.2.3h-.2Zm2.9-8.9h-.3zm-2.1 2.3c.1 0 .2 0 .3.1v.2s-.2 0-.3-.2v-.2Zm1 3.4c-.3 0-.7-.4-.6-.6h.5c.1.2.2.4.2.5Zm.2-2V25c.1 0 .2 0 .3.1v.2s-.2 0-.3-.2Zm.3-3.6h-.2c-.1 0-.3-.1-.4-.2s-.1-.3-.2-.4h.4s.2.1.5.4h-.1q.3.15 0 .3Zm.3.1s-.2-.1-.2-.2c.1 0 .2.2.4.3h-.3Zm3.4 21.8v-.2c.1 0 .2 0 .3.1v.2s-.2 0-.3-.2Zm1.1-.1-.2-.3h.2c0 .1 0 .2.1.3h-.2Zm.4-21.1c0 .1-.3.2-.5.3 0-.4-.1-.7-.1-1s.3 0 .3 0c.3.2.5.5.3.7m1.2 1.1-.3-.1c0-.5-.2-1-.3-1.6.5.3.8.5.8.8 0 .4.2.8-.2.9m1.7 3.5c.1 0 .2 0 .3.1v.2s-.2 0-.3-.2v-.2Zm.3 8.8c-.2-.2-.2-.4-.3-.6l.6.3c0 .1 0 .3.1.4-.1 0-.3 0-.4-.2Zm.8-.4-.2-.3h.2c0 .1 0 .2.1.3h-.2Z"/>
        <path d="M132.1 51.5s.2-.2.1-.3c-.2-.5-.6-.6-1-1.2 0 .7-.1 1 .2 1.4.2-.2.4-.2.7 0Z"/>
        <path d="m76.6 111.2-.2-.2-.1.1v.3c.3.1.3-.1.2-.3Z"/>
        <path d="M134.1 50.4s.1.3.2.4l.3-.3c-.2-.2-.3-.3-.5-.1"/>
    </g>
</svg>
