<?xml version="1.0" encoding="UTF-8"?>
<svg data-bbox="168.859 189.567 1621.302 727.802" viewBox="0 0 1920 1080" xmlns="http://www.w3.org/2000/svg" data-type="color">
    <g>
        <path d="M1370.91 265.24c-21.19 15.93-24.2 44.94-6.47 71.54 14.43 21.34 31.26 41.03 44.49 62.98 22.24 36.97 37.27 75.3 29.46 120.84-10.67 62.22-17.13 125.05-63.88 173.9-5.71 6.01-9.47 15.48-10.82 24.05-3.76 21.79-1.5 43.14 18.49 57.27 19.69 13.98 38.18 4.36 53.66-7.67 59.97-46.14 97.55-106.87 112.58-180.96 3.76-18.79 5.86-37.88 7.52-54.11 1.35-11.73 1.8-23.45.9-35.17-7.67-93.04-42.99-167.29-101.91-231.61-28.56-31.11-43.43-31.56-84.02-1.05Zm334.42 162.92c-51.4 15.63-74.1 48.1-73.35 89.73.75 37.43 23.59 71.69 53.35 80.11 30.81 8.57 64.93-8.87 84.77-43.29 2.55-4.36 5.26-8.72 7.36-13.23 16.53-35.92 19.69-74.55-7.36-103.26-12.03-12.93-45.24-16.08-64.78-10.07ZM188.79 414.79c-26.9 28.71-23.75 67.33-7.21 103.26 2.1 4.66 4.81 9.02 7.21 13.38 19.98 34.42 54.11 51.85 84.92 43.13 29.76-8.26 52.61-42.53 53.35-79.96.76-41.78-21.94-74.25-73.35-89.88-19.54-5.86-52.75-2.86-64.93 10.07Z" fill="#ffecd2" data-color="1"/>
        <path d="M1050.46 206.77c150.9 44.49 284.82 178.86 263.03 351.86-6.91 55.31-34.11 114.53-68.38 158.41-15.33 19.54-56.21 77.11-95.89 104.31l.3.75c-90.48 70.04-200.96 103.26-310.07 93.64-68.99-6.16-137.08-29.46-199.3-67.19-30.06-18.34-92.59-75.3-116.93-103.71l-.15-.15c-50.95-44.49-83.41-101-97.09-168.49-3.76-18.79-5.86-37.88-7.66-53.96-1.2-11.72-1.81-23.59-.76-35.32 7.52-92.89 42.98-167.14 101.91-231.62 28.4-31.11 43.43-31.41 84.02-.9 21.19 15.93 24.2 44.79 6.31 71.39-14.27 21.49-31.11 41.18-44.33 63.13-22.25 36.82-37.43 75.3-29.46 120.84 8.56 50.2 14.43 100.85 41.02 144.14 29.77 24.8 99.5 91.23 105.21 95.74 47.8 38.47 96.04 52.61 154.06 61.17 93.94 13.98 188.78-29.31 264.69-84.92v.15c28.71-26 37.12-36.22 67.03-86.12 14.28-23.75 30.81-76.5 28.56-104.16-5.56-64.63-19.24-134.67-68.84-170.44-58.01-41.63-137.67-69.89-207.57-49.15-72.89 21.5-132.56 88.23-150.3 171.8-7.66 35.32-13.97 70.64 20.29 97.4 13.98 10.82 26.76 23.9 42.09 32.31 19.68 11.12 38.62 29.76 65.38 14.58 32.77-18.64 52.46-62.67 45.39-99.2-3.16-16.84-1.8-34.72-.3-52.01 1.36-17.73 13.68-23 30.21-22.24 32.01 1.5 68.84 32.46 78.15 66.74 19.39 70.94-.6 132.71-59.67 176.75-31.87 23.75-89.28 48.55-126.41 38.78-93.34-24.65-164.13-54.26-202.45-144.29-51.4-120.99-6.77-279.26 126.25-363.88 81.46-51.7 171.2-52.76 261.67-26.15Z" fill="#ffecd2" data-color="1"/>
    </g>
</svg>
